<svg width="1728" height="792" viewBox="0 0 1728 792" fill="none" xmlns="http://www.w3.org/2000/svg">
<path opacity="0.35" d="M482.895 192.358C301.927 205.037 182.499 502.363 41.1289 505.355C-26.2672 506.788 -37.8939 438.336 -103.1 442.949L-103.876 555.18L1854.96 568.725L1857.59 189.165C1719.8 197.71 1658.59 45.1913 1554.66 56.8684C1450.73 68.5456 1440.71 219.35 1311.71 236.894C1211.76 250.662 1153.18 168.025 1045.34 181.915C924.237 197.405 909.929 319.094 805.754 325.445C660.093 334.259 613.332 183.279 482.895 192.358Z" fill="url(#paint0_linear_864_4792)"/>
<path d="M-98.2048 425.114C-33.0666 420.455 -21.6252 488.015 45.6923 486.492C186.897 483.312 306.916 189.587 487.695 176.779C617.996 167.606 664.322 316.585 809.827 307.65C913.89 301.212 928.483 181.052 1049.47 165.566C1157.22 151.68 1215.52 233.169 1315.38 219.416C1444.26 201.888 1454.65 52.9916 1558.48 41.2965C1662.31 29.6013 1723.07 180.077 1860.71 171.419" stroke="#436AF3" stroke-miterlimit="10" stroke-linecap="round"/>
<defs>
<linearGradient id="paint0_linear_864_4792" x1="733.435" y1="94.9588" x2="753.876" y2="472.052" gradientUnits="userSpaceOnUse">
<stop stop-color="#3B4593"/>
<stop stop-color="#1B2883"/>
<stop offset="0.0001" stop-color="#2D86D4"/>
<stop offset="1" stop-color="#2D86D4" stop-opacity="0"/>
</linearGradient>
</defs>
</svg>
